<svg width="300" height="300" viewBox="0 0 300 300" fill="none" xmlns="http://www.w3.org/2000/svg">
<circle cx="150" cy="150" r="150" fill="#2883BF"/>
<path d="M88.3563 127.262C87.2433 122.742 87.4142 118.042 88.8531 113.597C90.2919 109.153 92.9522 105.107 96.5872 101.837C100.222 98.5662 104.714 96.1761 109.647 94.8881C114.579 93.6001 119.793 93.4558 124.804 94.4687C127.562 90.5796 131.361 87.379 135.852 85.162C140.343 82.945 145.38 81.7829 150.5 81.7829C155.62 81.7829 160.657 82.945 165.148 85.162C169.639 87.379 173.438 90.5796 176.196 94.4687C181.215 93.4514 186.437 93.595 191.378 94.8862C196.318 96.1773 200.816 98.5741 204.453 101.854C208.091 105.133 210.749 109.189 212.181 113.643C213.613 118.098 213.772 122.806 212.644 127.331C216.957 129.818 220.507 133.244 222.966 137.293C225.425 141.342 226.714 145.884 226.714 150.5C226.714 155.116 225.425 159.658 222.966 163.707C220.507 167.756 216.957 171.182 212.644 173.669C213.767 178.187 213.607 182.887 212.179 187.335C210.75 191.782 208.099 195.832 204.472 199.11C200.844 202.387 196.358 204.786 191.428 206.083C186.499 207.381 181.286 207.535 176.272 206.531C173.518 210.435 169.716 213.65 165.217 215.877C160.719 218.103 155.67 219.271 150.538 219.271C145.406 219.271 140.357 218.103 135.859 215.877C131.361 213.65 127.558 210.435 124.804 206.531C119.793 207.544 114.579 207.4 109.647 206.112C104.714 204.824 100.222 202.434 96.5872 199.163C92.9522 195.893 90.2919 191.847 88.8531 187.403C87.4142 182.958 87.2433 178.258 88.3563 173.738C84.0097 171.257 80.4294 167.826 77.9485 163.763C75.4676 159.701 74.1666 155.138 74.1666 150.5C74.1666 145.862 75.4676 141.299 77.9485 137.237C80.4294 133.174 84.0097 129.743 88.3563 127.262Z" stroke="white" stroke-width="7" stroke-linecap="round" stroke-linejoin="round"/>
<path d="M127.625 150.5L142.875 164.25L173.375 136.75" stroke="white" stroke-width="7" stroke-linecap="round" stroke-linejoin="round"/>
</svg>
